<svg width="36" height="36" viewBox="0 0 36 36" fill="none" xmlns="http://www.w3.org/2000/svg">
<g clip-path="url(#clip0_6_99)">
<path d="M34 18C34 9.16352 26.8365 2 18 2C9.16352 2 2 9.16352 2 18C2 25.5034 7.16608 31.7997 14.135 33.529V22.8896H10.8358V18H14.135V15.8931C14.135 10.4474 16.5997 7.9232 21.9462 7.9232C22.96 7.9232 24.7091 8.12224 25.4246 8.32064V12.7526C25.047 12.713 24.391 12.6931 23.5763 12.6931C20.953 12.6931 19.9392 13.687 19.9392 16.2707V18H25.1654L24.2675 22.8896H19.9392V33.8829C27.8618 32.9261 34.0006 26.1805 34.0006 18H34Z" fill="white"/>
</g>
<defs>
<clipPath id="clip0_6_99">
<rect width="32" height="32" fill="white" transform="translate(2 2)"/>
</clipPath>
</defs>
</svg>
