<svg width="36" height="36" viewBox="0 0 36 36" fill="none" xmlns="http://www.w3.org/2000/svg">
<path d="M34.2361 9.42433C33.8451 7.95241 32.6934 6.79216 31.2299 6.39833C28.5794 5.68433 17.9473 5.68433 17.9473 5.68433C17.9473 5.68433 7.31518 5.68433 4.66318 6.39833C3.20118 6.79216 2.04943 7.95099 1.65843 9.42433C0.947266 12.0933 0.947266 17.6608 0.947266 17.6608C0.947266 17.6608 0.947266 23.2283 1.65843 25.8973C2.04943 27.3692 3.20118 28.5295 4.6646 28.9233C7.31518 29.6373 17.9473 29.6373 17.9473 29.6373C17.9473 29.6373 28.5794 29.6373 31.2314 28.9233C32.6934 28.5295 33.8451 27.3707 34.2375 25.8973C34.9473 23.2283 34.9473 17.6608 34.9473 17.6608C34.9473 17.6608 34.9473 12.0933 34.2361 9.42433ZM14.4708 22.7169V12.6047L23.3561 17.6608L14.4708 22.7169Z" fill="white"/>
</svg>
