<svg width="36" height="36" viewBox="0 0 36 36" fill="none" xmlns="http://www.w3.org/2000/svg">
<path d="M17.8945 4.77744C22.1665 4.77744 22.6732 4.79344 24.3599 4.87077C26.1039 4.95078 27.8999 5.34811 29.1705 6.61877C30.4532 7.90144 30.8385 9.68011 30.9185 11.4294C30.9959 13.1161 31.0119 13.6228 31.0119 17.8948C31.0119 22.1668 30.9959 22.6734 30.9185 24.3601C30.8399 26.0948 30.4332 27.9081 29.1705 29.1708C27.8879 30.4534 26.1105 30.8388 24.3599 30.9188C22.6732 30.9961 22.1665 31.0121 17.8945 31.0121C13.6225 31.0121 13.1159 30.9961 11.4292 30.9188C9.70786 30.8401 7.87053 30.4241 6.61853 29.1708C5.34253 27.8948 4.95053 26.0988 4.87053 24.3601C4.7932 22.6734 4.7772 22.1668 4.7772 17.8948C4.7772 13.6228 4.7932 13.1161 4.87053 11.4294C4.9492 9.70144 5.35986 7.87744 6.61853 6.61877C7.89853 5.33877 9.68386 4.95078 11.4292 4.87077C13.1159 4.79344 13.6225 4.77744 17.8945 4.77744ZM17.8945 1.89478C13.5492 1.89478 13.0039 1.91344 11.2972 1.99078C8.82386 2.10411 6.36786 2.79211 4.57986 4.58011C2.7852 6.37477 2.10386 8.82544 1.99053 11.2974C1.9132 13.0041 1.89453 13.5494 1.89453 17.8948C1.89453 22.2401 1.9132 22.7854 1.99053 24.4921C2.10386 26.9628 2.79453 29.4254 4.57986 31.2094C6.3732 33.0028 8.82786 33.6854 11.2972 33.7988C13.0039 33.8761 13.5492 33.8948 17.8945 33.8948C22.2399 33.8948 22.7852 33.8761 24.4919 33.7988C26.9639 33.6854 29.4225 32.9961 31.2092 31.2094C33.0052 29.4134 33.6852 26.9641 33.7985 24.4921C33.8759 22.7854 33.8945 22.2401 33.8945 17.8948C33.8945 13.5494 33.8759 13.0041 33.7985 11.2974C33.6852 8.82411 32.9959 6.36677 31.2092 4.58011C29.4185 2.78944 26.9572 2.10278 24.4919 1.99078C22.7852 1.91344 22.2399 1.89478 17.8945 1.89478Z" fill="white"/>
<path d="M17.6896 9.47363C13.1523 9.47363 9.47363 13.1523 9.47363 17.6896C9.47363 22.227 13.1523 25.9056 17.6896 25.9056C22.227 25.9056 25.9056 22.227 25.9056 17.6896C25.9056 13.1523 22.227 9.47363 17.6896 9.47363ZM17.6896 23.023C14.7443 23.023 12.3563 20.635 12.3563 17.6896C12.3563 14.7443 14.7443 12.3563 17.6896 12.3563C20.635 12.3563 23.023 14.7443 23.023 17.6896C23.023 20.635 20.635 23.023 17.6896 23.023Z" fill="white"/>
<path d="M26.5513 11.4191C27.6117 11.4191 28.4713 10.5595 28.4713 9.4991C28.4713 8.43871 27.6117 7.5791 26.5513 7.5791C25.491 7.5791 24.6313 8.43871 24.6313 9.4991C24.6313 10.5595 25.491 11.4191 26.5513 11.4191Z" fill="white"/>
</svg>
