<svg width="572" height="206" viewBox="0 0 572 206" fill="none" xmlns="http://www.w3.org/2000/svg">
<path d="M119.855 198.301C110.31 189.103 105.047 176.285 105.047 162.216C105.047 147.085 110.506 134.752 120.989 125.842C121.216 125.647 121.355 125.363 121.355 125.065V112.061C121.355 111.443 121.35 110.83 121.34 110.228C121.329 109.667 120.865 109.224 120.309 109.224H112.65C112.047 109.224 111.572 108.709 111.624 108.106L112.284 100.227C112.768 94.3611 114.016 88.9434 115.953 84.0047C116.057 83.7472 116.051 83.4588 115.938 83.2065C108.258 66.078 93.0225 57.7919 74.1944 57.7919C47.9132 57.7919 36.3885 71.3721 31.1003 82.1301C31.0591 77.7785 30.621 65.0686 29.9045 61.1187H0C0.273171 71.8665 0.273171 84.6072 0.273171 96.7815V202.673H31.09V126.033C31.09 99.0681 41.3262 83.5 63.7211 83.5C83.4976 83.5 90.5434 96.6785 90.5434 115.707V202.673H121.35V200.134C121.35 199.841 121.226 199.568 121.005 199.372C120.618 199.022 120.231 198.667 119.85 198.306L119.855 198.301ZM461.907 0H431.1V32.439H461.907V0ZM316.513 78.278C306.694 66.32 291.566 58.3377 270.074 58.3377C246.483 58.3377 231.149 68.3748 223.738 78.1441C217.444 65.6094 201.832 58.3377 177.123 58.3377C143.472 58.3377 123.102 73.5659 120.597 100.33C120.577 100.52 120.556 100.711 120.541 100.901H153.187C155.28 88.5057 161.537 80.1783 179.314 80.1783C199.755 80.1783 204.177 93.3157 204.177 105.629V116.835H190.07C164.294 116.835 135.112 120.054 121.34 137.26C116.314 143.542 113.345 151.679 113.345 162.216C113.345 171.388 115.959 180.209 121.34 187.476C129.262 198.157 143.188 205.439 163.63 205.439C184.071 205.439 202.93 199.65 214.981 180.529C222.104 192.013 237.669 205.439 267.053 205.439C308.72 205.439 324.043 181.981 329.769 161.624H299.128C294.077 174.472 286.309 181.837 268.321 181.837C245.7 181.837 232.793 163.524 233.113 137.486H330.955C331.078 133.32 331.192 128.335 331.192 123.824C331.192 122.794 331.171 121.764 331.145 120.723C330.604 105.269 326.063 89.8962 316.508 78.278H316.513ZM169.629 181.605C153.27 181.605 144.399 171.506 144.399 160.501C144.399 141.838 161.656 137.491 188.442 137.491H204.296V140.617C204.301 164.729 196.24 181.605 169.629 181.605ZM233.665 116.84C235.865 95.0151 247.467 81.3474 268.445 81.6255C291.278 81.8984 300.272 97.2347 300.865 116.84H233.665ZM519.412 115.707C494.713 109.862 489.507 105.418 489.507 96.3695C489.507 88.3409 494.672 80.4307 511.567 80.4307C531.911 80.4307 537.364 91.951 539.06 99.4131H568.588C567.011 79.926 552.213 57.797 512.918 57.797C484.941 57.797 469.442 68.3954 462.876 81.883C462.639 82.3722 461.902 82.1919 461.902 81.6512V61.1084H412.731C395.305 113.271 380.754 155.773 377.069 174.812H376.791C373.126 157.421 360.344 114.729 343.665 61.1084H310.58L310.714 61.4946C310.786 61.6955 310.915 61.8706 311.091 61.9941C315.745 65.2695 319.909 69.204 323.553 73.7771C333.836 86.7032 339.505 104.475 339.505 123.829C339.505 128.757 339.366 134.118 339.268 137.723L339.103 143.599C339.103 143.723 339.119 143.846 339.16 143.965L359.411 202.673H392.506L430.095 98.7951C430.291 98.2544 431.095 98.3934 431.095 98.9702V202.673H461.902V185.261C461.902 184.767 462.536 184.556 462.829 184.958C472.174 197.714 488.724 206 514.423 206C553.105 206 572 186.508 572 162.278C572 141.364 564.222 126.239 519.412 115.707ZM515.495 182.877C498.259 182.877 487.755 174.957 484.168 161.284H462.417C462.134 161.284 461.902 161.052 461.902 160.769V114.749C466.932 126.059 479.874 134.772 510.047 142.147C534.184 148.018 540.513 153.049 540.513 164.507C540.513 175.966 533.586 182.877 515.495 182.877Z" fill="#FDFF92"/>
</svg>
