<svg width="308" height="111" viewBox="0 0 308 111" fill="none" xmlns="http://www.w3.org/2000/svg">
<g clip-path="url(#clip0_1253_3885)">
<path d="M64.5368 106.854C59.397 101.898 56.5634 94.991 56.5634 87.4097C56.5634 79.2568 59.5024 72.6106 65.1474 67.8099C65.2695 67.7045 65.3444 67.5518 65.3444 67.3909V60.384C65.3444 60.051 65.3417 59.7208 65.3361 59.3961C65.3306 59.0936 65.0808 58.855 64.7811 58.855H60.657C60.3322 58.855 60.0769 58.5775 60.1047 58.2528L60.4599 54.007C60.7208 50.8463 61.3924 47.927 62.4359 45.2658C62.4914 45.127 62.4887 44.9717 62.4276 44.8357C58.2924 35.606 50.0886 31.1411 39.9504 31.1411C25.7992 31.1411 19.5936 38.4587 16.7462 44.2557C16.724 41.9108 16.4881 35.0621 16.1023 32.9337H0C0.147091 38.7251 0.147091 45.5905 0.147091 52.1506V109.21H16.7406V67.9126C16.7406 53.3827 22.2524 44.9939 34.311 44.9939C44.9599 44.9939 48.7537 52.0951 48.7537 62.3487V109.21H65.3417V107.842C65.3417 107.684 65.2751 107.537 65.1557 107.431C64.9476 107.243 64.7394 107.051 64.534 106.857L64.5368 106.854ZM248.717 0H232.129V17.4797H248.717V0ZM170.428 42.18C165.141 35.7365 156.996 31.4352 145.423 31.4352C132.72 31.4352 124.464 36.8437 120.473 42.1079C117.084 35.3535 108.678 31.4352 95.3732 31.4352C77.2532 31.4352 66.2853 39.6409 64.9365 54.0626C64.9254 54.1652 64.9143 54.2679 64.9059 54.3706H82.4847C83.6115 47.6911 86.9807 43.204 96.5527 43.204C107.56 43.204 109.941 50.283 109.941 56.918V62.9564H102.345C88.4655 62.9564 72.7517 64.6908 65.3361 73.9621C62.6302 77.3476 61.0316 81.7321 61.0316 87.4097C61.0316 92.352 62.4387 97.1056 65.3361 101.021C69.6017 106.776 77.1006 110.7 88.1074 110.7C99.1143 110.7 109.269 107.581 115.758 97.2776C119.593 103.466 127.975 110.7 143.797 110.7C166.232 110.7 174.483 98.0602 177.566 87.0906H161.067C158.348 94.0142 154.165 97.9825 144.479 97.9825C132.299 97.9825 125.349 88.1146 125.521 74.0842H178.205C178.271 71.8392 178.332 69.153 178.332 66.7221C178.332 66.1671 178.321 65.6121 178.307 65.0516C178.016 56.7238 175.571 48.4404 170.426 42.18H170.428ZM91.3379 97.8576C82.5291 97.8576 77.7528 92.4158 77.7528 86.4856C77.7528 76.4291 87.0445 74.087 101.468 74.087H110.005V75.7714C110.007 88.7639 105.667 97.8576 91.3379 97.8576ZM125.818 62.9592C127.003 51.1988 133.25 43.8339 144.546 43.9837C156.841 44.1308 161.683 52.3948 162.003 62.9592H125.818ZM279.681 62.3487C266.382 59.1991 263.579 56.8043 263.579 51.9286C263.579 47.6024 266.359 43.3399 275.457 43.3399C286.411 43.3399 289.347 49.5476 290.26 53.5686H306.16C305.311 43.068 297.343 31.1438 276.184 31.1438C261.12 31.1438 252.774 36.8548 249.239 44.1225C249.111 44.3861 248.714 44.289 248.714 43.9976V32.9282H222.238C212.854 61.0361 205.02 83.9382 203.035 94.1974H202.886C200.912 84.8262 194.03 61.8215 185.049 32.9282H167.234L167.306 33.1363C167.345 33.2445 167.414 33.3388 167.509 33.4054C170.015 35.1703 172.257 37.2904 174.219 39.7547C179.756 46.7199 182.809 56.2964 182.809 66.7249C182.809 69.3805 182.734 72.2693 182.681 74.2118L182.593 77.3781C182.593 77.4447 182.601 77.5113 182.623 77.5751L193.527 109.21H211.347L231.588 53.2356C231.693 52.9442 232.126 53.0191 232.126 53.3299V109.21H248.714V99.8279C248.714 99.5614 249.055 99.4477 249.214 99.6641C254.245 106.538 263.157 111.003 276.994 111.003C297.823 111.003 307.997 100.499 307.997 87.443C307.997 76.1737 303.809 68.0236 279.681 62.3487ZM277.572 98.543C268.291 98.543 262.635 94.2751 260.703 86.9074H248.992C248.839 86.9074 248.714 86.7826 248.714 86.63V61.8326C251.423 67.9265 258.392 72.6217 274.638 76.5956C287.635 79.759 291.043 82.4702 291.043 88.6446C291.043 94.819 287.313 98.543 277.572 98.543Z" fill="white"/>
</g>
<defs>
<clipPath id="clip0_1253_3885">
<rect width="308" height="111" fill="white"/>
</clipPath>
</defs>
</svg>
