<svg width="137" height="49" viewBox="0 0 137 49" fill="none" xmlns="http://www.w3.org/2000/svg">
<g clip-path="url(#clip0_3394_1854)">
<path d="M28.7063 47.1698C26.4201 44.982 25.1597 41.933 25.1597 38.5863C25.1597 34.9872 26.467 32.0534 28.9779 29.9341C29.0322 29.8876 29.0655 29.8202 29.0655 29.7491V26.656C29.0655 26.509 29.0643 26.3632 29.0618 26.2199C29.0594 26.0864 28.9483 25.981 28.8149 25.981H26.9805C26.8361 25.981 26.7225 25.8585 26.7349 25.7152L26.8929 23.841C27.0089 22.4457 27.3077 21.157 27.7718 19.9822C27.7965 19.9209 27.7953 19.8524 27.7681 19.7923C25.9288 15.718 22.2797 13.747 17.7702 13.747C11.4756 13.747 8.71534 16.9773 7.44878 19.5363C7.4389 18.5012 7.33397 15.4779 7.16238 14.5383H0C0.0654268 17.0949 0.0654268 20.1255 0.0654268 23.0214V48.2099H7.44631V29.9794C7.44631 23.5653 9.89796 19.8622 15.2617 19.8622C19.9984 19.8622 21.6859 22.9969 21.6859 27.5233V48.2099H29.0643V47.6059C29.0643 47.5361 29.0347 47.4712 28.9816 47.4247C28.889 47.3414 28.7964 47.2568 28.7051 47.1711L28.7063 47.1698ZM110.631 0H103.252V7.71628H110.631V0ZM75.8074 18.62C73.4558 15.7756 69.8326 13.8768 64.6849 13.8768C59.0347 13.8768 55.3622 16.2643 53.587 18.5882C52.0797 15.6065 48.3405 13.8768 42.4225 13.8768C34.3626 13.8768 29.484 17.4991 28.8841 23.8655C28.8791 23.9108 28.8742 23.9561 28.8705 24.0014H36.6896C37.1908 21.0528 38.6895 19.072 42.9471 19.072C47.843 19.072 48.9022 22.197 48.9022 25.126V27.7916H45.5235C39.3499 27.7916 32.3603 28.5572 29.0618 32.6499C27.8582 34.1444 27.1472 36.0799 27.1472 38.5863C27.1472 40.768 27.7731 42.8664 29.0618 44.5949C30.9592 47.1356 34.2947 48.8677 39.1906 48.8677C44.0865 48.8677 48.6035 47.4908 51.4896 42.9424C53.1957 45.6741 56.9238 48.8677 63.9615 48.8677C73.9409 48.8677 77.611 43.2878 78.9825 38.4454H71.6436C70.4338 41.5018 68.5734 43.2535 64.2652 43.2535C58.8471 43.2535 55.756 38.8974 55.8325 32.7038H79.2664C79.296 31.7128 79.3232 30.527 79.3232 29.4539C79.3232 29.2089 79.3183 28.9639 79.3121 28.7164C79.1825 25.0402 78.0949 21.3836 75.8062 18.62H75.8074ZM40.6276 43.1984C36.7094 43.1984 34.5848 40.7962 34.5848 38.1784C34.5848 33.739 38.7178 32.7051 45.1334 32.7051H48.9306V33.4486C48.9318 39.1841 47.0011 43.1984 40.6276 43.1984ZM55.9646 27.7928C56.4917 22.6013 59.2705 19.3501 64.2948 19.4163C69.7635 19.4812 71.9176 23.1292 72.0596 27.7928H55.9646ZM124.403 27.5233C118.488 26.1329 117.241 25.0758 117.241 22.9234C117.241 21.0137 118.478 19.132 122.525 19.132C127.397 19.132 128.703 21.8724 129.109 23.6474H136.182C135.804 19.012 132.26 13.7482 122.848 13.7482C116.147 13.7482 112.435 16.2692 110.863 19.4775C110.806 19.5939 110.629 19.551 110.629 19.4224V14.5359H98.8525C94.6787 26.9439 91.1938 37.0538 90.3112 41.5826H90.2445C89.3668 37.4458 86.3053 27.2906 82.3106 14.5359H74.3866L74.4187 14.6277C74.4359 14.6755 74.4668 14.7171 74.5088 14.7465C75.6235 15.5257 76.6209 16.4615 77.4937 17.5493C79.9565 20.6241 81.3144 24.8516 81.3144 29.4551C81.3144 30.6275 81.2811 31.9027 81.2576 32.7602L81.2181 34.1579C81.2181 34.1873 81.2218 34.2167 81.2317 34.2449L86.0819 48.2099H94.0084L103.011 23.5004C103.058 23.3718 103.251 23.4049 103.251 23.542V48.2099H110.629V44.0681C110.629 43.9506 110.781 43.9003 110.851 43.9959C113.09 47.0302 117.053 49.0012 123.209 49.0012C132.473 49.0012 136.999 44.3646 136.999 38.601C136.999 33.6262 135.136 30.0284 124.403 27.5233ZM123.465 43.501C119.337 43.501 116.821 41.6169 115.962 38.3646H110.753C110.685 38.3646 110.629 38.3094 110.629 38.2421V27.2955C111.834 29.9856 114.934 32.0583 122.16 33.8125C127.941 35.209 129.457 36.4058 129.457 39.1314C129.457 41.857 127.798 43.501 123.465 43.501Z" fill="white"/>
</g>
<defs>
<clipPath id="clip0_3394_1854">
<rect width="137" height="49" fill="white"/>
</clipPath>
</defs>
</svg>
