<svg width="36" height="36" viewBox="0 0 36 36" fill="none" xmlns="http://www.w3.org/2000/svg">
<path d="M31 15.333C28.3426 15.333 25.879 14.478 23.8689 13.0254V23.5071C23.8689 28.7423 19.6362 33 14.4344 33C12.4243 33 10.5595 32.3625 9.02771 31.2799C6.59518 29.5611 5 26.7185 5 23.5071C5 18.2719 9.2327 14.013 14.4357 14.013C14.868 14.013 15.2904 14.0492 15.7066 14.1055V15.3268V19.3707C15.3041 19.2444 14.8792 19.1707 14.4357 19.1707C12.0603 19.1707 10.1272 21.1158 10.1272 23.5071C10.1272 25.1722 11.0664 26.6185 12.438 27.3448C13.0356 27.661 13.7151 27.8423 14.4369 27.8423C16.7576 27.8423 18.651 25.9847 18.738 23.6696L18.7417 3H23.8676C23.8676 3.44752 23.9111 3.88379 23.9881 4.3088C24.3497 6.27389 25.5088 7.96021 27.1152 9.014C28.2333 9.74778 29.5676 10.1765 30.9988 10.1765L31 15.333Z" fill="white"/>
</svg>
