<svg width="830" height="48" viewBox="0 0 830 48" fill="none" xmlns="http://www.w3.org/2000/svg">
<path d="M145.936 13.928H153.088V47H145.936V13.928ZM155.516 37.304H162.717C163.485 40.616 165.837 42.104 169.677 42.104C173.517 42.104 175.149 40.568 175.149 38.168C175.149 35.432 173.565 34.28 167.901 32.984C158.877 30.872 156.669 27.56 156.669 23.096C156.669 17.336 160.988 13.448 168.812 13.448C177.597 13.448 181.101 18.152 181.581 23H174.381C173.997 20.936 172.893 18.728 168.621 18.728C165.693 18.728 163.965 19.928 163.965 22.28C163.965 24.584 165.357 25.544 170.733 26.744C180.333 29.048 182.445 32.6 182.445 37.304C182.445 43.304 177.885 47.48 169.148 47.48C160.749 47.48 156.285 43.352 155.516 37.304ZM215.082 36.776H222.282C220.986 42.968 216.33 47.48 208.026 47.48C197.514 47.48 192.57 40.04 192.57 30.632C192.57 21.56 197.706 13.448 208.362 13.448C217.194 13.448 221.466 18.584 222.282 24.152H215.13C214.41 21.56 212.634 19.016 208.122 19.016C202.218 19.016 199.962 24.344 199.962 30.392C199.962 35.96 201.93 41.864 208.314 41.864C213.018 41.864 214.458 38.744 215.082 36.776ZM240.134 13.448C249.83 13.448 255.974 20.216 255.974 30.344C255.974 39.56 250.454 47.48 239.702 47.48C229.286 47.48 223.862 39.944 223.862 30.44C223.862 20.84 229.862 13.448 240.134 13.448ZM239.846 19.256C233.846 19.256 231.254 23.864 231.254 30.296C231.254 36.776 234.086 41.672 239.942 41.672C246.326 41.672 248.582 36.344 248.582 30.44C248.582 24.152 245.99 19.256 239.846 19.256ZM287.061 47V34.568C287.061 28.952 287.157 22.616 287.301 18.872H287.061C285.525 25.64 282.213 36.632 279.045 47H272.949C270.501 37.928 267.093 25.4 265.653 18.776H265.413C265.701 22.664 265.845 29.48 265.845 35.144V47H259.317V13.928H269.973C272.565 22.568 275.445 33.416 276.453 38.312H276.501C277.317 33.992 280.917 22.376 283.701 13.928H293.973V47H287.061ZM298.953 13.928H306.105V47H298.953V13.928ZM317.648 47H311.12V13.928H320C324.128 21.32 331.76 34.76 333.296 38.36H333.392C333.008 34.904 333.008 29.144 333.008 23.72V13.928H339.488V47H331.088C327.536 40.52 319.088 25.16 317.408 21.32H317.312C317.552 24.2 317.648 31.016 317.648 36.92V47ZM373.274 28.472V47H368.042C367.754 45.992 367.562 44.84 367.466 43.736C365.642 46.232 362.426 47.576 357.818 47.576C348.218 47.576 342.842 40.28 342.842 30.872C342.842 20.936 348.65 13.448 359.066 13.448C367.562 13.448 372.602 18.248 373.37 23.864H366.218C365.546 21.656 363.818 19.016 358.97 19.016C352.154 19.016 350.234 24.728 350.234 30.536C350.234 36.248 352.442 41.864 359.018 41.864C365.114 41.864 366.266 37.592 366.266 34.664V34.328H359.018V28.472H373.274ZM393.01 47V19.784H382.93V13.928H410.194V19.784H400.162V47H393.01ZM425.287 13.448C434.983 13.448 441.127 20.216 441.127 30.344C441.127 39.56 435.607 47.48 424.855 47.48C414.439 47.48 409.015 39.944 409.015 30.44C409.015 20.84 415.015 13.448 425.287 13.448ZM424.999 19.256C418.999 19.256 416.407 23.864 416.407 30.296C416.407 36.776 419.239 41.672 425.095 41.672C431.479 41.672 433.735 36.344 433.735 30.44C433.735 24.152 431.143 19.256 424.999 19.256ZM459.839 47V19.784H449.759V13.928H477.023V19.784H466.991V47H459.839ZM478.553 47V13.928H485.705V26.792H499.049V13.928H506.201V47H499.049V32.696H485.705V47H478.553ZM534.005 26.84V32.744H518.165V41.144H535.637L534.773 47H511.205V13.928H534.677V19.784H518.165V26.84H534.005ZM558.454 33.752H553.75V47H546.742V13.928H561.286C568.486 13.928 572.374 17.864 572.374 23C572.374 27.416 569.974 29.816 567.574 30.824C569.206 31.448 571.702 33.128 571.702 39.08V40.712C571.702 42.92 571.702 45.464 572.182 47H565.366C564.79 45.56 564.694 43.064 564.694 39.56V39.08C564.694 35.48 563.782 33.752 558.454 33.752ZM553.75 19.592V28.04H559.75C563.638 28.04 565.174 26.552 565.174 23.816C565.174 21.128 563.398 19.592 559.894 19.592H553.75ZM598.677 26.84V32.744H582.837V41.144H600.309L599.445 47H575.877V13.928H599.349V19.784H582.837V26.84H598.677ZM622.035 39.368H609.939L607.395 47H600.339L611.571 13.928H620.547L632.307 47H624.771L622.035 39.368ZM611.475 33.512H620.499C618.147 26.504 616.659 22.04 615.843 19.064H615.795C614.979 22.328 613.347 27.512 611.475 33.512ZM633.68 47V13.928H640.832V41.144H657.344L656.528 47H633.68ZM680.39 47H672.998L664.55 13.928H672.182C675.302 29.096 676.694 35.864 677.078 39.512H677.126C678.374 33.416 681.59 21.896 683.51 13.928H689.942C691.67 20.264 694.982 33.08 696.086 39.176H696.134C697.238 31.88 700.454 19.064 701.654 13.928H708.566L699.638 47H692.198C690.47 39.656 687.542 28.952 686.39 23.288H686.342C685.142 29.192 682.166 40.328 680.39 47ZM724.664 13.448C734.36 13.448 740.504 20.216 740.504 30.344C740.504 39.56 734.984 47.48 724.232 47.48C713.816 47.48 708.392 39.944 708.392 30.44C708.392 20.84 714.392 13.448 724.664 13.448ZM724.376 19.256C718.376 19.256 715.784 23.864 715.784 30.296C715.784 36.776 718.616 41.672 724.472 41.672C730.856 41.672 733.112 36.344 733.112 30.44C733.112 24.152 730.52 19.256 724.376 19.256ZM755.559 33.752H750.855V47H743.847V13.928H758.391C765.591 13.928 769.479 17.864 769.479 23C769.479 27.416 767.079 29.816 764.679 30.824C766.311 31.448 768.807 33.128 768.807 39.08V40.712C768.807 42.92 768.807 45.464 769.287 47H762.471C761.895 45.56 761.799 43.064 761.799 39.56V39.08C761.799 35.48 760.887 33.752 755.559 33.752ZM750.855 19.592V28.04H756.855C760.743 28.04 762.279 26.552 762.279 23.816C762.279 21.128 760.503 19.592 756.999 19.592H750.855ZM772.983 47V13.928H780.135V41.144H796.647L795.831 47H772.983ZM797.993 47V13.928H811.145C820.745 13.928 827.081 20.264 827.081 30.056C827.081 39.704 820.937 47 810.809 47H797.993ZM805.145 19.688V41.24H810.521C816.857 41.24 819.689 36.488 819.689 30.056C819.689 24.632 817.049 19.688 810.569 19.688H805.145Z" fill="#50A6FF"/>
<path d="M27.7398 45.7031C25.5704 43.6065 24.3744 40.6846 24.3744 37.4775C24.3744 34.0285 25.6149 31.2169 27.9975 29.186C28.0491 29.1414 28.0807 29.0769 28.0807 29.0088V26.0446C28.0807 25.9037 28.0795 25.764 28.0772 25.6267C28.0748 25.4987 27.9694 25.3978 27.8429 25.3978H26.1022C25.9651 25.3978 25.8574 25.2804 25.8691 25.143L26.019 23.3469C26.1291 22.0098 26.4126 20.7749 26.8531 19.6491C26.8765 19.5904 26.8753 19.5246 26.8495 19.4671C25.1042 15.5626 21.6415 13.6738 17.3624 13.6738C11.3894 13.6738 8.77011 16.7694 7.56825 19.2218C7.55888 18.2298 7.45931 15.3325 7.29648 14.4321H0.5C0.562084 16.8821 0.562084 19.7864 0.562084 22.5616V46.6998H7.56591V29.2295C7.56591 23.0828 9.89231 19.534 14.9821 19.534C19.4767 19.534 21.078 22.5381 21.078 26.8757V46.6998H28.0795V46.1211C28.0795 46.0541 28.0514 45.9919 28.001 45.9473C27.9132 45.8675 27.8253 45.7865 27.7386 45.7043L27.7398 45.7031ZM105.479 0.5H98.4774V7.89455H105.479V0.5ZM72.4347 18.3437C70.2032 15.6178 66.7651 13.7982 61.8804 13.7982C56.5189 13.7982 53.0339 16.0862 51.3495 18.3131C49.9192 15.4558 46.371 13.7982 40.7553 13.7982C33.1072 13.7982 28.4778 17.2695 27.9085 23.3704C27.9038 23.4138 27.8991 23.4573 27.8956 23.5007H35.3153C35.7909 20.6751 37.213 18.7768 41.2531 18.7768C45.8989 18.7768 46.904 21.7715 46.904 24.5784V27.1328H43.6978C37.8397 27.1328 31.2072 27.8665 28.0772 31.7886C26.9351 33.2208 26.2603 35.0756 26.2603 37.4775C26.2603 39.5682 26.8542 41.5792 28.0772 43.2356C29.8776 45.6703 33.0428 47.3302 37.6885 47.3302C42.3343 47.3302 46.6205 46.0107 49.3592 41.6519C50.9781 44.2698 54.5158 47.3302 61.1939 47.3302C70.6636 47.3302 74.1461 41.983 75.4476 37.3425H68.4836C67.3356 40.2714 65.5703 41.9501 61.4821 41.9501C56.3408 41.9501 53.4076 37.7756 53.4802 31.8403H75.717C75.7451 30.8906 75.7709 29.7542 75.7709 28.7258C75.7709 28.4911 75.7662 28.2563 75.7603 28.0191C75.6373 24.4962 74.6053 20.992 72.4335 18.3437H72.4347ZM39.0521 41.8973C35.334 41.8973 33.318 39.5952 33.318 37.0865C33.318 32.8322 37.2399 31.8414 43.3277 31.8414H46.9309V32.554C46.9321 38.0503 45.1 41.8973 39.0521 41.8973ZM53.6056 27.134C54.1058 22.1589 56.7426 19.0433 61.5102 19.1067C66.6995 19.1689 68.7436 22.6649 68.8783 27.134H53.6056ZM118.548 26.8757C112.935 25.5433 111.752 24.5302 111.752 22.4677C111.752 20.6375 112.925 18.8344 116.765 18.8344C121.389 18.8344 122.628 21.4604 123.014 23.1614H129.725C129.366 18.7193 126.003 13.675 117.072 13.675C110.714 13.675 107.191 16.0909 105.699 19.1654C105.645 19.2769 105.478 19.2358 105.478 19.1126V14.4298H94.3025C90.342 26.3205 87.0351 36.0089 86.1975 40.3489H86.1343C85.3014 36.3845 82.3963 26.6527 78.6057 14.4298H71.0864L71.1169 14.5178C71.1333 14.5636 71.1626 14.6035 71.2024 14.6317C72.2602 15.3783 73.2067 16.2752 74.0349 17.3176C76.3718 20.2642 77.6603 24.3154 77.6603 28.727C77.6603 29.8505 77.6287 31.0725 77.6065 31.8943L77.569 33.2337C77.569 33.2619 77.5725 33.2901 77.5819 33.3171L82.1843 46.6998H89.7059L98.2489 23.0206C98.2935 22.8973 98.4762 22.929 98.4762 23.0605V46.6998H105.478V42.7308C105.478 42.6181 105.622 42.5699 105.689 42.6615C107.812 45.5693 111.574 47.4582 117.414 47.4582C126.206 47.4582 130.5 43.0149 130.5 37.4915C130.5 32.7242 128.732 29.2764 118.548 26.8757ZM117.658 42.1872C113.741 42.1872 111.353 40.3817 110.538 37.265H105.595C105.53 37.265 105.478 37.2121 105.478 37.1476V26.6574C106.621 29.2353 109.562 31.2216 116.42 32.9027C121.905 34.2409 123.344 35.3879 123.344 37.9999C123.344 40.6118 121.77 42.1872 117.658 42.1872Z" fill="#47A6FF"/>
</svg>
