<svg width="139" height="50" viewBox="0 0 139 50" fill="none" xmlns="http://www.w3.org/2000/svg">
<g clip-path="url(#clip0_3394_1972)">
<path d="M29.464 46.9909C29.6801 47.1995 29.9062 47.3981 30.141 47.5893C30.1698 47.613 30.1873 47.648 30.1873 47.6854V48.395H21.9614V27.6249C21.9614 23.3602 20.4399 20.3572 15.9366 20.3572C11.1236 20.3572 8.73637 23.4739 8.73637 29.7597V48.395H0.510542V22.9517C0.510542 20.0399 0.510542 16.9369 0.444336 14.3836H8.41784C8.59647 15.303 8.70889 18.0724 8.73637 19.138C9.96057 16.7371 12.72 13.5879 18.8859 13.5879C23.398 13.5879 26.9731 15.5866 28.8157 19.5715C28.8306 19.6039 28.8306 19.6427 28.8157 19.6751C28.2498 20.9543 27.8975 22.3759 27.7701 23.9123L27.6564 25.2777C27.6439 25.4251 27.7601 25.5513 27.9075 25.5513H30.0386C30.1061 25.5513 30.1623 25.6037 30.166 25.6712C30.181 25.9997 30.1885 26.3357 30.1885 26.678V29.7547C30.1885 29.8322 30.1523 29.9046 30.0911 29.9521C29.2916 30.5767 28.607 31.2775 28.0437 32.0482C26.7183 33.8633 26.045 36.0843 26.045 38.6476C26.045 41.9105 27.2604 44.8735 29.4652 46.9896" fill="#373737"/>
<path d="M57.0285 27.6408C57.4982 22.9602 59.9428 19.7585 64.7659 19.826C70.0587 19.8922 71.8875 23.3374 72.0461 27.6408H57.0285ZM49.2211 33.7918C49.2211 38.781 47.5497 42.8171 41.4437 42.8171C37.6338 42.8171 35.8237 40.5086 35.8237 38.1614C35.8237 34.0753 39.6125 33.011 45.6697 33.011H49.2211V33.7918ZM65.1956 13.72C59.5456 13.72 55.9454 16.0959 54.3065 18.0971C52.7775 15.4339 49.1737 13.72 43.1364 13.72C35.8687 13.72 31.0194 16.5731 29.6353 21.9034C29.4604 22.5754 29.3405 23.2874 29.278 24.037H38.006C38.4557 21.36 39.8036 19.4088 43.7585 19.4088C48.2018 19.4088 49.1999 22.2306 49.1999 25.0688V27.6408H46.0994C40.2983 27.6408 33.7388 28.3729 30.1862 31.8743C28.5547 33.482 27.5566 35.6743 27.5566 38.6461C27.5566 41.2231 28.4073 43.6853 30.1862 45.5678C32.1736 47.6739 35.3203 49.053 39.7336 49.053C44.4705 49.053 49.01 47.7838 51.9943 43.4654C53.6607 45.9513 57.3008 49.053 64.4349 49.053C74.8055 49.053 78.4981 43.2081 79.8347 38.3325H71.6564C70.5321 41.2431 68.772 42.8546 64.7459 42.8546C59.5881 42.8546 56.8049 38.6149 56.8961 33.0098H80.0933C80.1095 32.0717 80.1283 31.0224 80.1308 30.0193C80.132 29.8968 80.132 29.7757 80.132 29.6545C80.132 25.3061 78.8741 20.9502 75.981 17.8935C73.5813 15.3589 70.0587 13.7188 65.1944 13.7188" fill="#373737"/>
<path d="M124.691 43.129C120.808 43.129 118.415 41.3826 117.613 38.3346H112.174C112.104 38.3346 112.048 38.2784 112.048 38.2085V28.9858C112.048 28.8646 112.2 28.8134 112.274 28.9096C113.897 31.0207 117.117 32.7546 123.266 34.2623C128.682 35.584 130.177 36.6495 130.177 39.1678C130.177 41.6862 128.676 43.1277 124.69 43.1277M125.796 27.2544C120.034 25.8978 118.864 24.9335 118.864 22.956C118.864 21.1909 120.008 19.5058 123.678 19.5058C128.375 19.5058 129.492 22.1103 129.854 23.6843H137.709C137.364 19.0336 133.839 13.5859 124.041 13.5859C117.825 13.5859 114.137 15.6658 112.28 18.4527C112.21 18.5564 112.049 18.5089 112.049 18.384V14.3817H99.1078C95.4265 25.8004 92 36.0299 91.0856 41.0291H91.0194C90.2261 36.8881 87.3093 26.7048 83.6192 14.3817H74.7788L74.9962 15.02C75.0049 15.045 75.0211 15.0662 75.0424 15.0812C76.0967 15.8307 77.0423 16.7251 77.868 17.7582C80.3039 20.8012 81.6455 25.0272 81.6455 29.6554C81.6455 30.7671 81.6268 31.9389 81.6068 33.0394L81.5831 34.2411C81.5831 34.2561 81.5856 34.2698 81.5893 34.2848L86.4174 48.3943H95.1654L103.579 24.9047C103.626 24.7711 103.823 24.8061 103.823 24.9472V48.3943H112.049V44.8616C112.049 44.7454 112.193 44.6905 112.269 44.7779C114.616 47.4624 118.509 49.1887 124.392 49.1887C134.123 49.1887 138.556 44.3244 138.556 38.582C138.556 33.5728 136.797 29.8327 125.798 27.2582" fill="#373737"/>
<path d="M112.05 0H103.824V8.04096H112.05V0Z" fill="#373737"/>
</g>
<defs>
<clipPath id="clip0_3394_1972">
<rect width="138.112" height="49.1876" fill="white" transform="translate(0.444336)"/>
</clipPath>
</defs>
</svg>
